<?xml version="1.0" encoding="utf-8"?>
<!-- Generator: Adobe Illustrator 26.0.0, SVG Export Plug-In . SVG Version: 6.00 Build 0)  -->
<svg version="1.1" id="A-T" xmlns="http://www.w3.org/2000/svg" xmlns:xlink="http://www.w3.org/1999/xlink" x="0px" y="0px"
	 viewBox="0 0 497.5 142.5" style="enable-background:new 0 0 497.5 142.5;" xml:space="preserve">
<style type="text/css">
	.st0{fill-rule:evenodd;clip-rule:evenodd;}
	.st1{fill-rule:evenodd;clip-rule:evenodd;fill:#ED1C24;}
</style>
<path class="st0" d="M211.9,53.9c-2-2.7-4.2-4.7-6.6-6c-2.4-1.3-5.2-1.9-8.3-1.9c-4.9,0-9,1.8-12.5,5.4c-3.5,3.6-5.2,7.9-5.2,12.9
	c0,5.3,1.7,9.7,5.2,13.4c3.4,3.6,7.6,5.4,12.5,5.4c3,0,5.8-0.6,8.2-1.9c2.4-1.3,4.6-3.1,6.4-5.7h5.1c-2,3.7-4.7,6.6-8.1,8.7
	c-3.4,2-7.1,3-11.3,3c-6.4,0-11.8-2.2-16.1-6.6c-4.3-4.4-6.4-9.9-6.4-16.4c0-3.1,0.6-6,1.7-8.7c1.2-2.8,2.9-5.2,5.1-7.4
	c2.1-2.1,4.4-3.7,7-4.7c2.6-1.1,5.4-1.6,8.4-1.6c4.4,0,8.3,1.1,11.7,3.2c3.5,2.1,6.2,5.1,8.3,9H211.9L211.9,53.9z M227.7,86.3h-4.3
	V42.6h4.3v19.6h20.8V42.6h4.3v43.8h-4.3v-20h-20.8V86.3L227.7,86.3z M265.2,86.3h-4.3V42.6h4.3V86.3L265.2,86.3z M293.1,86.3h-19.7
	V42.6h4.3v39.5h15.4V86.3L293.1,86.3z M303,46.7v35.5h8.9c5.6,0,9.9-1.6,12.9-4.7c3-3.1,4.5-7.6,4.5-13.3c0-2.9-0.5-5.5-1.5-7.9
	c-1-2.4-2.5-4.5-4.4-6.1c-1.4-1.2-3-2.1-4.8-2.7c-1.8-0.5-4.3-0.8-7.7-0.8H303L303,46.7z M298.8,42.6h12.5c3.4,0,6.3,0.3,8.6,1
	c2.3,0.7,4.4,1.8,6.2,3.3c2.5,2.1,4.5,4.7,5.8,7.7c1.4,3,2.1,6.3,2.1,9.8c0,3.9-0.8,7.4-2.3,10.6c-1.5,3.2-3.7,5.8-6.5,7.8
	c-1.8,1.3-3.8,2.2-6,2.8c-2.1,0.6-5.5,0.8-9.9,0.8h-10.5V42.6L298.8,42.6z M343.5,46.9v39.5h-4.2V42.6H351c2.6,0,4.7,0.2,6.2,0.6
	c1.6,0.4,3,1,4.3,1.9c1.7,1.2,3.1,2.9,4.1,4.9c1,2,1.5,4.2,1.5,6.5c0,3.4-1,6.3-3,8.7c-2,2.5-4.5,3.8-7.6,4l10.6,17.1h-5.1l-13-21.1
	h4.1c2.8,0,5-0.8,6.8-2.4c1.7-1.6,2.6-3.7,2.6-6.3c0-1.5-0.3-2.9-0.8-4.2c-0.5-1.3-1.3-2.4-2.4-3.3c-0.9-0.8-1.9-1.3-3.1-1.7
	c-1.2-0.3-3.4-0.5-6.5-0.5H343.5L343.5,46.9z M378.4,62.2h18.4v4.3h-18.4v15.6h18.4v4.2h-22.7V42.6h22.7v4.3h-18.4V62.2L378.4,62.2z
	 M434.1,81.1l-0.5-38.5h4.3v43.8h-5.2l-24-38.6l0.5,38.6h-4.2V42.6h5.2L434.1,81.1L434.1,81.1z M448.8,73.8h4.1
	c0.1,2.7,0.9,4.9,2.3,6.5c1.5,1.6,3.4,2.4,5.7,2.4c2.5,0,4.6-0.8,6.1-2.4c1.5-1.6,2.2-3.8,2.2-6.5c0-4-3.1-7-9.2-9
	c-0.5-0.2-0.8-0.3-1.1-0.4c-3.2-1.1-5.5-2.5-6.9-4.2c-1.4-1.7-2.1-3.9-2.1-6.6c0-3.5,1.1-6.3,3.3-8.6c2.2-2.2,5-3.3,8.4-3.3
	c3.3,0,5.9,1,7.8,3c1.9,2,3,4.9,3.2,8.5h-4.1c-0.2-2.4-0.9-4.2-2.1-5.5c-1.2-1.3-2.8-1.9-4.8-1.9c-2.2,0-3.9,0.7-5.3,2.1
	c-1.4,1.4-2.1,3.2-2.1,5.4c0,1.1,0.2,2.1,0.6,3c0.4,0.8,1.1,1.6,2,2.3c0.9,0.7,2.7,1.4,5.3,2.3c1.5,0.5,2.6,0.9,3.4,1.2
	c2.8,1.1,4.9,2.5,6.1,4.2s1.9,4,1.9,6.8c0,4.2-1.2,7.7-3.5,10.3c-2.3,2.6-5.4,3.9-9.2,3.9c-3.6,0-6.5-1.2-8.7-3.7
	C450,81.1,448.9,77.8,448.8,73.8z"/>
<path class="st0" d="M486.2,45.6h-1.5v3.2h1.5c0.9,0,1.5-0.1,1.9-0.4c0.4-0.2,0.6-0.6,0.6-1.2c0-0.6-0.2-1-0.6-1.3
	C487.7,45.7,487,45.6,486.2,45.6L486.2,45.6z M486.5,44.4c1.3,0,2.3,0.2,3,0.7c0.7,0.4,1,1.1,1,2c0,0.7-0.2,1.2-0.6,1.7
	c-0.4,0.4-0.9,0.7-1.6,0.9l2.1,4.4h-2l-2-4.1h-1.8V54h-1.8v-9.6H486.5L486.5,44.4z M493.6,49.4c0,1-0.2,1.9-0.6,2.8
	c-0.4,0.9-0.9,1.6-1.6,2.3c-0.7,0.7-1.5,1.2-2.4,1.6c-0.9,0.4-1.8,0.6-2.8,0.6c-1,0-1.9-0.2-2.8-0.6c-0.9-0.4-1.7-0.9-2.4-1.6
	c-0.7-0.7-1.2-1.5-1.6-2.4c-0.4-0.9-0.6-1.8-0.6-2.8c0-1,0.2-1.9,0.6-2.8c0.4-0.9,0.9-1.7,1.7-2.4c0.7-0.7,1.4-1.2,2.3-1.5
	c0.9-0.4,1.8-0.5,2.8-0.5c1,0,2,0.2,2.9,0.6c0.9,0.4,1.7,0.9,2.4,1.6c0.7,0.7,1.2,1.5,1.6,2.4C493.5,47.5,493.6,48.4,493.6,49.4
	L493.6,49.4z M486.3,40.9c1.2,0,2.2,0.2,3.3,0.6c1,0.4,1.9,1.1,2.8,1.9c0.8,0.8,1.4,1.7,1.8,2.7c0.4,1,0.6,2.1,0.6,3.2
	c0,1.2-0.2,2.2-0.6,3.3c-0.4,1-1,1.9-1.8,2.7c-0.8,0.8-1.8,1.4-2.8,1.9c-1,0.4-2.1,0.6-3.2,0.6c-1.1,0-2.2-0.2-3.2-0.6
	c-1-0.4-1.9-1.1-2.7-1.9c-0.8-0.8-1.4-1.7-1.8-2.7c-0.4-1-0.6-2.1-0.6-3.2c0-1.1,0.2-2.2,0.7-3.2c0.4-1,1.1-2,1.9-2.8
	c0.8-0.8,1.7-1.4,2.7-1.8C484.1,41.1,485.1,40.9,486.3,40.9z"/>
<path class="st0" d="M180.4,100.4v16.7h6.3c3.5,0,6.1-0.7,7.8-2c1.7-1.3,2.5-3.4,2.5-6.2c0-2.9-0.9-5.1-2.5-6.4
	c-1.7-1.4-4.4-2-8.2-2H180.4L180.4,100.4z M176.1,96.1h9.3c2.7,0,4.8,0.1,6.4,0.4c1.6,0.3,2.9,0.7,4,1.4c1.9,1.2,3.4,2.7,4.4,4.5
	c1,1.9,1.6,3.9,1.6,6.3c0,2.2-0.5,4.2-1.4,6.1c-0.9,1.9-2.2,3.4-3.9,4.5c-1.2,0.8-2.5,1.4-4.2,1.7c-1.6,0.3-3.7,0.5-6.2,0.5h-5.7
	v18.4h-4.3V96.1L176.1,96.1z M211.3,100.4v39.5h-4.2V96.1h11.8c2.6,0,4.7,0.2,6.2,0.6c1.6,0.4,3,1,4.3,1.9c1.7,1.2,3.1,2.9,4.1,4.9
	c1,2,1.5,4.2,1.5,6.5c0,3.4-1,6.3-3,8.7c-2,2.5-4.5,3.8-7.6,4l10.6,17.1h-5.1l-13-21.1h4.1c2.8,0,5-0.8,6.8-2.4
	c1.7-1.6,2.6-3.7,2.6-6.3c0-1.5-0.3-2.9-0.8-4.2c-0.5-1.3-1.3-2.4-2.4-3.3c-0.9-0.8-1.9-1.3-3.1-1.7c-1.2-0.3-3.4-0.5-6.5-0.5H211.3
	L211.3,100.4z M244.2,117.8c0,5.3,1.7,9.8,5.2,13.4c3.5,3.6,7.8,5.4,12.8,5.4c5,0,9.2-1.8,12.6-5.5c3.4-3.7,5.1-8.1,5.1-13.5
	c0-5-1.8-9.3-5.3-12.9c-3.5-3.6-7.8-5.4-12.8-5.4c-2,0-4,0.3-5.8,1c-1.9,0.7-3.6,1.7-5.2,3.1c-2.1,1.8-3.7,3.9-4.9,6.5
	C244.8,112.5,244.2,115.1,244.2,117.8L244.2,117.8z M239.7,117.8c0-3,0.6-6,1.8-8.7c1.2-2.8,2.9-5.2,5.1-7.4
	c2.1-2.1,4.5-3.7,7.1-4.8c2.6-1.1,5.4-1.6,8.4-1.6c3.1,0,5.9,0.5,8.5,1.6c2.6,1.1,5,2.7,7.2,4.8c2.2,2.2,3.9,4.6,5,7.3
	c1.1,2.7,1.7,5.6,1.7,8.8c0,3.1-0.5,6-1.4,8.5c-1,2.6-2.4,5-4.3,7.1c-2.2,2.5-4.7,4.3-7.6,5.5c-2.8,1.2-5.9,1.9-9.1,1.9
	c-6.3,0-11.6-2.2-15.9-6.6C241.9,129.7,239.7,124.3,239.7,117.8L239.7,117.8z M305.7,96.1h4.3v29.5c0,2.6-0.1,4.6-0.4,6
	c-0.3,1.4-0.7,2.7-1.4,3.8c-1,1.7-2.4,3.1-4.2,4c-1.8,1-3.7,1.4-5.9,1.4c-3.3,0-5.9-1.1-7.9-3.2c-2-2.1-3-4.9-3-8.4h4.3
	c0.1,2.2,0.8,3.9,2.1,5.2c1.3,1.3,2.8,2,4.7,2c2.7,0,4.6-0.9,5.7-2.5c1.1-1.7,1.7-5.1,1.7-10.1V96.1L305.7,96.1z M322.3,115.8h18.4
	v4.3h-18.4v15.6h18.4v4.2H318V96.1h22.7v4.3h-18.4V115.8L322.3,115.8z M383.8,107.5c-2-2.7-4.2-4.7-6.6-6c-2.4-1.3-5.2-1.9-8.3-1.9
	c-4.9,0-9,1.8-12.5,5.4c-3.5,3.6-5.2,7.9-5.2,12.9c0,5.3,1.7,9.7,5.2,13.4c3.4,3.6,7.6,5.4,12.5,5.4c3,0,5.8-0.6,8.2-1.9
	c2.4-1.3,4.6-3.2,6.4-5.7h5.1c-2,3.7-4.7,6.6-8.1,8.7c-3.4,2-7.1,3-11.3,3c-6.4,0-11.8-2.2-16.1-6.6c-4.3-4.4-6.4-9.9-6.4-16.4
	c0-3.1,0.6-6,1.7-8.7c1.2-2.7,2.9-5.2,5.1-7.4c2.1-2.1,4.4-3.7,7-4.7c2.6-1.1,5.4-1.6,8.4-1.6c4.4,0,8.3,1.1,11.7,3.2
	c3.5,2.1,6.2,5.1,8.3,9H383.8L383.8,107.5z M404.6,139.9h-4.3v-39.5h-8.8v-4.3h21.8v4.3h-8.8V139.9z"/>
<rect x="441.9" y="41.9" class="st0" width="3" height="14.9"/>
<polygon class="st1" points="163,139 129.8,139 129.6,36.2 107,36.2 106.7,6.4 191.1,6.6 200.1,36.7 163,36.6 "/>
<polygon class="st1" points="5.5,116 3.4,104.6 2.7,93.6 2.9,84.8 4.7,73.5 7.5,62.4 11.7,51.5 15.2,45 19.8,38.3 27.2,30.3 
	38.7,20.3 44.1,16.7 51.5,13.1 66.2,39.9 58.9,44.5 55.5,47 52.2,49.7 48,53.9 45.6,57.2 63.7,69.9 46.3,92.5 38.7,87.7 37.7,90.8 
	37.3,94.5 37.2,98.7 37.5,102.8 37.9,104.7 38.9,109.6 39.8,114.1 40.3,116 41.8,120.2 43.3,123.9 46.9,130.6 49,133.9 52.1,138.8 
	13.2,138.8 9.1,128.4 "/>
<path class="st1" d="M75.3,2c8.9,0,16.1,7.4,16.1,16.5c0,9.1-7.2,16.5-16.1,16.5s-16.1-7.4-16.1-16.5C59.2,9.4,66.4,2,75.3,2z"/>
<path class="st1" d="M92.1,32.1c8.7,0,15.9,6.8,15.9,15.2S101.1,64,92.3,64c-8.8,0-15.8-8.1-15.8-16.5
	C76.5,39.2,83.4,32.1,92.1,32.1z"/>
<polygon class="st1" points="74.1,65.3 108.5,65.3 108.5,139.2 73.6,139.2 73.7,106.7 50.4,94.9 67.2,71.9 74.1,76.3 "/>
</svg>
